<?xml version="1.0" standalone="no"?>
<!DOCTYPE svg PUBLIC "-//W3C//DTD SVG 20010904//EN"
 "http://www.w3.org/TR/2001/REC-SVG-20010904/DTD/svg10.dtd">
<svg version="1.0" xmlns="http://www.w3.org/2000/svg"
 width="512.000000pt" height="512.000000pt" viewBox="0 0 512.000000 512.000000"
 preserveAspectRatio="xMidYMid meet">

<g transform="translate(0.000000,512.000000) scale(0.100000,-0.100000)"
fill="#000000" stroke="none">
<path d="M712 4835 c-153 -37 -309 -159 -377 -297 -70 -142 -65 4 -65 -1970 0
-1243 3 -1803 11 -1840 19 -94 85 -213 159 -288 75 -74 194 -140 288 -159 37
-8 511 -11 1536 -11 1628 0 1562 -2 1748 60 185 62 336 156 479 299 239 239
359 530 359 867 0 326 -122 623 -349 854 -128 130 -271 225 -428 285 l-73 28
0 827 c0 550 -4 846 -11 886 -39 213 -219 404 -434 459 -52 13 -233 15 -1425
14 -1080 -1 -1376 -3 -1418 -14z m2814 -329 c27 -13 66 -42 87 -66 70 -82 67
-45 67 -927 l0 -793 -67 0 c-172 0 -360 -46 -528 -130 -256 -127 -428 -299
-555 -555 -229 -461 -149 -1001 206 -1384 l56 -61 -992 0 c-748 0 -1003 3
-1034 12 -55 16 -148 109 -164 164 -17 58 -18 3535 0 3585 24 73 88 138 162
166 23 8 371 12 1371 12 l1340 1 51 -24z m326 -2135 c470 -122 763 -600 658
-1073 -77 -350 -360 -626 -710 -692 -472 -90 -925 196 -1052 663 -29 107 -31
325 -4 431 60 233 198 427 398 558 87 56 214 106 327 127 100 19 280 12 383
-14z"/>
<path d="M1227 3776 c-49 -18 -64 -32 -89 -80 -37 -73 -13 -153 62 -203 l33
-23 789 0 c708 0 794 2 824 16 50 24 77 68 82 133 5 70 -22 115 -88 149 l-44
22 -766 0 c-614 -1 -772 -4 -803 -14z"/>
<path d="M1200 2908 c-48 -33 -72 -70 -77 -120 -7 -58 23 -118 74 -149 l38
-24 545 -3 c300 -2 564 0 588 3 57 8 118 62 132 116 19 69 -17 151 -80 184
-25 13 -116 15 -608 15 l-579 0 -33 -22z"/>
<path d="M3890 1859 c-14 -5 -102 -87 -197 -181 l-172 -172 -69 66 c-80 78
-125 96 -189 79 -85 -23 -137 -113 -113 -196 9 -31 43 -71 153 -182 118 -118
148 -143 180 -148 87 -16 92 -13 359 253 173 172 251 257 259 280 22 68 -2
140 -63 185 -31 23 -111 32 -148 16z"/>
</g>
</svg>
